<svg width="800" height="800" viewBox="0 0 32 32" fill="none" xmlns="http://www.w3.org/2000/svg"><path fill="#FFCA28" d="M2 2h28v28H2z"/><path d="m19 25.288 2.061-1.364c.162.507 1.185 1.713 2.477 1.713 1.293 0 1.893-.706 1.893-1.174 0-1.275-1.32-1.725-1.954-1.94a3.689 3.689 0 0 1-.246-.09 3.68 3.68 0 0 0-.133-.053c-.705-.269-3.306-1.262-3.306-4.143 0-3.172 3.062-3.537 3.754-3.537.453 0 2.63.056 3.716 2.094l-2 1.396c-.439-.889-1.167-1.182-1.616-1.182-1.108 0-1.338.812-1.338 1.182 0 1.037 1.203 1.502 2.22 1.894.265.103.518.2.734.303 1.107.523 2.738 1.38 2.738 4.076C28 25.813 26.867 28 24.015 28c-3.83 0-4.846-2.3-5.015-2.712Zm-10 .271 2.149-1.364c.168.508.822 1.443 1.772 1.443.949 0 1.435-.975 1.435-1.443V15h2.642v9.195c.043 1.269-.66 3.805-3.765 3.805-2.853 0-4.04-1.696-4.233-2.44Z" fill="#3E3E3E"/></svg>