<svg width="70" height="70" viewBox="-1.61 0 70 70" xmlns="http://www.w3.org/2000/svg"><path d="M29.343 69.876c-3.223-.64-6.005-2.844-7.357-5.828-.595-1.312-.849-2.552-.844-4.133.012-4.543 2.87-8.338 7.308-9.705.817-.252 1.357-.319 2.61-.322.87-.002 1.828.043 2.13.102l.55.106.677-1.313c1.382-2.683 3.535-4.79 6.318-6.184 2.296-1.15 3.739-1.484 6.404-1.484 1.867 0 2.3.045 3.504.364 5.202 1.378 9.255 5.46 10.531 10.603.32 1.288.48 4.176.293 5.309l-.127.773.729.163c1.825.409 3.401 1.684 4.206 3.406.797 1.702.651 3.905-.365 5.514-.518.821-1.535 1.734-2.383 2.14-.435.208-.898.435-1.029.504-.295.154-32.375.14-33.155-.015zm33.351-1.898c.903-.45 1.795-1.453 2.166-2.435.77-2.04-.257-4.408-2.305-5.32-.518-.23-.904-.283-1.983-.273-.737.007-1.34-.04-1.34-.103 0-.064.137-.662.305-1.33.428-1.707.423-4.429-.01-6.091a13.089 13.089 0 0 0-6.823-8.42c-1.489-.745-2.905-1.085-4.84-1.164-2.864-.117-4.864.334-7.067 1.595-2.57 1.47-4.784 4.134-5.643 6.786-.165.51-.365.927-.445.926-.08 0-.546-.134-1.038-.296-1.366-.45-3.697-.422-5.061.06-1.374.485-2.362 1.107-3.391 2.133-1.543 1.538-2.4 3.634-2.4 5.87 0 3.32 1.829 6.23 4.804 7.645 1.71.813 1.119.789 18.485.762l15.941-.025.645-.32zM16.7 61.552c-5.767-.782-10.206-2.23-13.49-4.4-1.354-.896-2.29-1.898-2.817-3.019L0 53.3l.036-22.596.036-22.596.328-.616c.83-1.556 2.447-2.884 5.021-4.122C8.677 1.802 12.431.823 17.662.175c2.154-.266 9.47-.22 11.681.076 8.141 1.085 14.46 3.745 16.473 6.935.794 1.258.773.802.773 17.228v15.082l-.446.069a33.5 33.5 0 0 1-1.237.153c-4.483.48-9.133 3.579-11.516 7.677l-.488.84-1.917.09c-2.265.107-3.419.397-5.14 1.292-2.958 1.538-5.07 4.203-5.933 7.481-.238.906-.308 1.562-.313 2.92l-.01 1.753-.76-.017c-.417-.009-1.377-.1-2.133-.202zm11.724-20.827a730.598 730.598 0 0 1-2.079-1.768c-.062-.055.163-.26.5-.458.745-.437 1.705-1.483 2.113-2.302.997-2.003.975-4.494-.058-6.477-1.135-2.18-3.51-3.324-6.201-2.986-1.474.185-2.397.599-3.37 1.51-1.537 1.437-2.069 2.847-1.988 5.268.046 1.376.095 1.623.488 2.459.847 1.798 2.619 3.141 4.423 3.355.679.08.738.125 2.086 1.575l1.388 1.493h4.665l-1.967-1.67zm-5.885-4.687c-.945-.48-1.304-1.3-1.304-2.985 0-1.096.053-1.416.322-1.964.431-.875 1.29-1.401 2.133-1.306.83.093 1.26.429 1.699 1.321.332.678.38.935.377 2.014 0 1.331-.24 2.013-.91 2.636-.7.65-1.42.74-2.317.284zm-9.51 3.19c2.486-.573 3.836-2.654 3.12-4.809-.36-1.085-1.122-1.762-2.982-2.653-.859-.412-1.627-.832-1.707-.935-.313-.402-.312-.668 0-1.033.484-.563 1.586-.59 3.078-.076l1.138.393-.04-1.519-.038-1.519-.756-.18c-1.143-.271-3.614-.258-4.586.025-1.949.568-2.976 1.842-2.97 3.684.01 1.895.861 2.793 3.868 4.07 1.272.54 1.418 1.548.28 1.943-.525.183-.675.18-1.508-.036a9.836 9.836 0 0 1-1.715-.648l-.79-.41v3.288l.79.22c.435.121.852.242.928.268.314.11 3.343.052 3.888-.073zm26.552-1.438v-1.443h-4.398v-9.482H31.61v12.368h7.971V37.79zM28.999 13.05c3.584-.416 6.525-1.167 8.383-2.142 1.221-.64 1.514-.87 1.983-1.562 1.452-2.14-1.798-4.29-8.098-5.36-5.919-1.004-13.719-.776-18.71.546-10.301 2.728-6.24 7.74 7.07 8.729 2.185.162 7.11.051 9.372-.211z" fill="#00bcf2"/></svg>