<svg width="800" height="800" viewBox="0 0 32 32" fill="none" xmlns="http://www.w3.org/2000/svg"><path d="M30 16c0 7.728-6.265 14-14 14S2 23.728 2 16C2 8.265 8.265 2 16 2s14 6.265 14 14Z" fill="#E95420"/><path d="M6.822 14.156c-1.01 0-1.822.83-1.822 1.847s.819 1.848 1.822 1.848c1.002 0 1.821-.83 1.821-1.848a1.834 1.834 0 0 0-1.821-1.847Zm13.01 8.392a1.867 1.867 0 0 0-.669 2.525 1.807 1.807 0 0 0 2.49.678 1.867 1.867 0 0 0 .669-2.525c-.512-.878-1.624-1.183-2.49-.678Zm-9.054-6.544a5.4 5.4 0 0 1 2.265-4.414l-1.33-2.263a8.057 8.057 0 0 0-3.275 4.663 2.62 2.62 0 0 1 0 4.027 8.027 8.027 0 0 0 3.275 4.663l1.33-2.263a5.4 5.4 0 0 1-2.264-4.414Zm5.322-5.397c2.783 0 5.062 2.159 5.3 4.92l2.6-.042a8.036 8.036 0 0 0-2.354-5.203 2.538 2.538 0 0 1-2.183-.18 2.592 2.592 0 0 1-1.248-1.833 7.927 7.927 0 0 0-2.115-.29c-1.262 0-2.45.297-3.507.83l1.27 2.296a5.254 5.254 0 0 1 2.237-.498Zm0 10.793a5.31 5.31 0 0 1-2.245-.498l-1.269 2.296a7.778 7.778 0 0 0 3.507.83c.73 0 1.44-.103 2.115-.29a2.586 2.586 0 0 1 1.248-1.833 2.516 2.516 0 0 1 2.184-.18 8.07 8.07 0 0 0 2.353-5.203l-2.6-.041c-.231 2.753-2.51 4.919-5.293 4.919Zm3.725-11.948a1.807 1.807 0 0 0 2.49-.678 1.86 1.86 0 0 0-.669-2.525 1.807 1.807 0 0 0-2.49.678 1.873 1.873 0 0 0 .669 2.525Z" fill="#fff"/></svg>