<svg xmlns="http://www.w3.org/2000/svg" x="0px" y="0px" fill="url(#a)" width="64" height="64" viewBox="0 0 48 48">
    <defs>
        <linearGradient id="a" x1="0%" y1="0%" x2="100%" y2="100%">
            <stop offset="0%" style="stop-color:#c822ff" />
            <stop offset="100%" style="stop-color:#1a6dff" />
        </linearGradient>
    </defs>
    <path d="M24 32.4L5.8 19.6 8.2 16.4 24 27.6 39.8 16.4 42.2 19.6z"></path>
    <path d="M39.9 31.6L24 20.6 8.1 31.6 5.9 28.4 24 15.8 42.1 28.4z"></path>
    <path d="M22 8H26V18.1H22zM22 29.9H26V40H22z"></path>
    <path d="M24,43.4L5,31.1V16.9L24,4.6l19,12.3v14.2L24,43.4z M9,28.9l15,9.7l15-9.7v-9.8L24,9.4L9,19.1V28.9z"></path>
</svg>