<svg xmlns="http://www.w3.org/2000/svg"  viewBox="0 0 64 64" width="64px" height="64px"><linearGradient id="q8DVlv2UdkDMMIFqXJ4~5a" x1="32" x2="32" y1="15" y2="49" gradientUnits="userSpaceOnUse" spreadMethod="reflect"><stop offset="0" stop-color="#6dc7ff"/><stop offset="1" stop-color="#e6abff"/></linearGradient><path fill="url(#q8DVlv2UdkDMMIFqXJ4~5a)" d="M44.328,43.889c-1.106,1.602-2.737,2.87-4.853,3.768C37.382,48.547,34.869,49,32.014,49 c-3.431,0-6.309-0.616-8.551-1.837c-1.605-0.887-2.931-2.091-3.931-3.574C18.514,42.094,18,40.607,18,39.172 c0-0.895,0.336-1.673,0.995-2.309c0.656-0.628,1.495-0.946,2.493-0.946c0.82,0,1.528,0.25,2.104,0.747 c0.553,0.477,1.021,1.185,1.399,2.095c0.424,0.994,0.885,1.828,1.376,2.492c0.465,0.631,1.14,1.169,2.002,1.582 c0.866,0.421,2.032,0.633,3.47,0.633c1.975,0,3.592-0.43,4.808-1.28c1.189-0.831,1.769-1.833,1.769-3.053 c0-0.966-0.301-1.725-0.919-2.318c-0.652-0.624-1.514-1.109-2.551-1.439c-1.087-0.346-2.562-0.719-4.384-1.113 c-2.479-0.545-4.583-1.188-6.256-1.916c-1.716-0.747-3.095-1.781-4.106-3.073c-1.025-1.316-1.544-2.961-1.544-4.901 c0-1.849,0.546-3.515,1.624-4.949c1.064-1.423,2.627-2.537,4.636-3.296C26.895,15.377,29.255,15,31.92,15 c2.134,0,4.011,0.25,5.578,0.752c1.571,0.5,2.901,1.176,3.942,2.011c1.053,0.843,1.83,1.741,2.322,2.675 c0.496,0.942,0.747,1.88,0.747,2.787c0,0.874-0.328,1.669-0.98,2.361c-0.652,0.695-1.479,1.045-2.451,1.045 c-0.885,0-1.578-0.219-2.059-0.652c-0.446-0.405-0.911-1.038-1.426-1.944c-0.595-1.161-1.315-2.075-2.143-2.715 c-0.801-0.624-2.147-0.942-3.988-0.942c-1.712,0-3.103,0.35-4.136,1.045c-0.998,0.668-1.483,1.435-1.483,2.345 c0,0.557,0.156,1.021,0.477,1.423c0.343,0.421,0.82,0.795,1.426,1.105c0.629,0.322,1.274,0.581,1.922,0.764 c0.663,0.187,1.777,0.469,3.306,0.831c1.933,0.426,3.71,0.898,5.281,1.411c1.59,0.524,2.966,1.164,4.087,1.912 c1.14,0.764,2.047,1.742,2.691,2.91C45.677,35.296,46,36.746,46,38.432C45.998,40.447,45.438,42.283,44.328,43.889z"/><linearGradient id="q8DVlv2UdkDMMIFqXJ4~5b" x1="32" x2="32" y1="6" y2="58" gradientUnits="userSpaceOnUse" spreadMethod="reflect"><stop offset="0" stop-color="#1a6dff"/><stop offset="1" stop-color="#c822ff"/></linearGradient><path fill="url(#q8DVlv2UdkDMMIFqXJ4~5b)" d="M43.5,58c-2.231,0-4.453-0.523-6.449-1.517C35.382,56.826,33.685,57,32,57 C18.215,57,7,45.785,7,32c0-1.686,0.174-3.383,0.517-5.051C6.523,24.953,6,22.731,6,20.5C6,12.505,12.505,6,20.5,6 c2.231,0,4.453,0.523,6.449,1.517C28.618,7.174,30.315,7,32,7c13.785,0,25,11.215,25,25c0,1.685-0.174,3.382-0.517,5.051 C57.477,39.047,58,41.269,58,43.5C58,51.495,51.495,58,43.5,58z M37.334,54.375l0.325,0.172C39.477,55.511,41.442,56,43.5,56 C50.393,56,56,50.393,56,43.5c0-2.058-0.489-4.023-1.453-5.841l-0.172-0.325l0.079-0.359C54.816,35.334,55,33.66,55,32 C55,19.317,44.683,9,32,9c-1.66,0-3.334,0.184-4.975,0.546l-0.359,0.079l-0.325-0.172C24.523,8.489,22.558,8,20.5,8 C13.607,8,8,13.607,8,20.5c0,2.058,0.489,4.023,1.453,5.841l0.172,0.325l-0.079,0.359C9.184,28.665,9,30.339,9,32 c0,12.683,10.317,23,23,23c1.66,0,3.334-0.184,4.975-0.546L37.334,54.375z"/></svg>