<svg xmlns="http://www.w3.org/2000/svg"  viewBox="0 0 64 64" width="64px" height="64px"><linearGradient id="0zcF278O~CJRDRO0GXRRya" x1="32" x2="32" y1="14" y2="45" gradientUnits="userSpaceOnUse" spreadMethod="reflect"><stop offset="0" stop-color="#1a6dff"/><stop offset="1" stop-color="#c822ff"/></linearGradient><path fill="url(#0zcF278O~CJRDRO0GXRRya)" d="M22,20.02V45h2V20.33C23.35,20.15,22.68,20.05,22,20.02z M14,23.7V45h2V21.79 C15.24,22.32,14.57,22.97,14,23.7z M6,28.52v14.96c0.62,0.41,1.29,0.75,2,1V27.52C7.29,27.77,6.62,28.11,6,28.52z M4,41.64V30.36 C2.75,31.9,2,33.87,2,36S2.75,40.1,4,41.64z M11,27c-0.34,0-0.67,0.02-1,0.06v17.88c0.33,0.04,0.66,0.06,1,0.06 c0.24,0,0.48-0.01,0.74-0.04C11.82,44.99,11.91,45,12,45V27.06C11.67,27.02,11.33,27,11,27z M18,20.69V45h2V20.13 C19.31,20.23,18.64,20.42,18,20.69z M53,27c-0.68,0-1.35,0.07-2,0.22V27c0-7.17-5.83-13-13-13c-4.98,0-9.52,2.89-11.68,7.32 c-0.1-0.06-0.21-0.12-0.32-0.18V45c0,0,26.76,0,27,0c4.96,0,9-4.04,9-9C62,31.04,57.96,27,53,27z M53,43c-0.3,0-25,0-25,0V22.45 C29.77,18.56,33.69,16,38,16c6.07,0,11,4.93,11,11c0,0.45-0.04,0.93-0.12,1.5c-0.04,0.35,0.1,0.71,0.39,0.93 c0.29,0.22,0.67,0.26,1,0.12C51.13,29.19,52.05,29,53,29c3.86,0,7,3.14,7,7S56.86,43,53,43z"/><linearGradient id="0zcF278O~CJRDRO0GXRRyb" x1="44" x2="44" y1="18" y2="41" gradientUnits="userSpaceOnUse" spreadMethod="reflect"><stop offset="0" stop-color="#6dc7ff"/><stop offset="1" stop-color="#e6abff"/></linearGradient><path fill="url(#0zcF278O~CJRDRO0GXRRyb)" d="M58,36c0,2.76-2.24,5-5,5H30V22.9l0.12-0.22C31.71,19.79,34.73,18,38,18c4.96,0,9,4.04,9,9 c0,0.35-0.03,0.74-0.1,1.22c-0.14,1.08,0.3,2.15,1.16,2.8c0.53,0.4,1.15,0.62,1.82,0.62c0.4,0,0.8-0.08,1.17-0.24 C51.67,31.13,52.32,31,53,31C55.76,31,58,33.24,58,36z"/></svg>