<svg xmlns="http://www.w3.org/2000/svg" width="64" height="64" viewBox="0 0 64 64" stroke="url(#a)">
    <defs>
        <linearGradient id="a" x1="0%" y1="0%" x2="100%" y2="100%">
            <stop offset="0%" style="stop-color:#c822ff" />
            <stop offset="100%" style="stop-color:#1a6dff" />
        </linearGradient>
        <linearGradient id="X8PQgv_hN2z14HAU6EeM8b" x1="53.975" x2="53.975" y1="20.11" y2="50"
            gradientUnits="userSpaceOnUse" spreadMethod="reflect">
            <stop offset="0" stop-color="#6dc7ff" />
            <stop offset="1" stop-color="#e6abff" />
        </linearGradient>

    </defs>
    <path fill="url(#X8PQgv_hN2z14HAU6EeM8b)" stroke-linecap="round" stroke-linejoin="round" stroke-miterlimit="10"
        stroke-width="2" d="M45 41v12H17V41h-5v17h38V41z" />
    <path fill="url(#X8PQgv_hN2z14HAU6EeM8b)" stroke-linecap="round" stroke-linejoin="round" stroke-miterlimit="10"
        stroke-width="2"
        d="M21 48v-4h20v4zM50.14 6.703l3.881-.967 4.839 19.406-3.882.967zm-8.536 3.673 3.564-1.816 9.08 17.82-3.564 1.817z" />
    <path fill="url(#X8PQgv_hN2z14HAU6EeM8b)" stroke-linecap="round" stroke-linejoin="round" stroke-miterlimit="10"
        stroke-width="2" d="m41.604 10.376 3.564-1.816 9.08 17.82-3.564 1.817z" />
    <path fill="url(#X8PQgv_hN2z14HAU6EeM8b)" stroke-linecap="round" stroke-linejoin="round" stroke-miterlimit="10"
        stroke-width="2"
        d="m41.604 10.376 3.564-1.816 9.08 17.82-3.564 1.817zm-7.491 5.501 3.064-2.571 12.857 15.32-3.064 2.572z" />
    <path fill="url(#X8PQgv_hN2z14HAU6EeM8b)" stroke-linecap="round" stroke-linejoin="round" stroke-miterlimit="10"
        stroke-width="2" d="m34.113 15.877 3.064-2.571 12.857 15.32-3.064 2.572z" />
    <path fill="url(#X8PQgv_hN2z14HAU6EeM8b)" stroke-linecap="round" stroke-linejoin="round" stroke-miterlimit="10"
        stroke-width="2"
        d="m34.113 15.877 3.064-2.571 12.857 15.32-3.064 2.572zm-6.061 7.048 2.407-3.195 15.973 12.037-2.407 3.195z" />
    <path fill="url(#X8PQgv_hN2z14HAU6EeM8b)" stroke-linecap="round" stroke-linejoin="round" stroke-miterlimit="10"
        stroke-width="2" d="m28.052 22.925 2.407-3.195 15.973 12.037-2.407 3.195z" />
    <path fill="url(#X8PQgv_hN2z14HAU6EeM8b)" stroke-linecap="round" stroke-linejoin="round" stroke-miterlimit="10"
        stroke-width="2"
        d="m28.052 22.925 2.407-3.195 15.973 12.037-2.407 3.195zm-4.322 8.228 1.627-3.654 18.27 8.134-1.626 3.654z" />
    <path fill="url(#X8PQgv_hN2z14HAU6EeM8b)" stroke-linecap="round" stroke-linejoin="round" stroke-miterlimit="10"
        stroke-width="2" d="m23.73 31.153 1.627-3.654 18.27 8.134-1.626 3.654z" />
    <path fill="url(#X8PQgv_hN2z14HAU6EeM8b)" stroke-linecap="round" stroke-linejoin="round" stroke-miterlimit="10"
        stroke-width="2"
        d="m23.73 31.153 1.627-3.654 18.27 8.134-1.626 3.654zm-2.359 8.988.763-3.927 19.633 3.817-.763 3.926z" />
    <path fill="url(#X8PQgv_hN2z14HAU6EeM8b)" stroke-linecap="round" stroke-linejoin="round" stroke-miterlimit="10"
        stroke-width="2" d="m21.371 40.141.763-3.927 19.633 3.817-.763 3.926z" />
    <path fill="url(#X8PQgv_hN2z14HAU6EeM8b)" stroke-linecap="round" stroke-linejoin="round" stroke-miterlimit="10"
        stroke-width="2" d="m21.371 40.141.763-3.927 19.633 3.817-.763 3.926z" />
    <path fill="url(#X8PQgv_hN2z14HAU6EeM8b)" stroke-linecap="round" stroke-miterlimit="10" stroke-width="2"
        d="m18.731 26.252 1.839.789m.39-5.252 1.734.995m.981-5.18 1.608 1.188m1.558-5.045 1.462 1.365m2.169-4.789 1.296 1.524m2.693-4.519 1.112 1.662m3.188-4.191.913 1.779" />
</svg>