<svg xmlns="http://www.w3.org/2000/svg"  viewBox="0 0 64 64" width="64px" height="64px"><linearGradient id="SVGID_1_" x1="51" x2="51" y1="14.468" y2="47.466" gradientUnits="userSpaceOnUse"><stop offset="0" stop-color="#6dc7ff"/><stop offset="1" stop-color="#e6abff"/></linearGradient><path fill="url(#SVGID_1_)" d="M48,12.9l5.4,2.7c0.3,0.2,0.6,0.5,0.6,0.9v31.1c0,0.4-0.2,0.7-0.6,0.9L48,51.1V12.9z"/><linearGradient id="SVGID_2_" x1="32" x2="32" y1="7.426" y2="55.768" gradientUnits="userSpaceOnUse"><stop offset="0" stop-color="#1a6dff"/><stop offset="1" stop-color="#c822ff"/></linearGradient><path fill="url(#SVGID_2_)" d="M55,11.4L44.4,6.3c0,0-0.1,0-0.1,0c0,0,0,0-0.1,0c-1-0.4-2.2-0.1-2.9,0.7L25.1,24.8l-10-8.1	c-1.2-1-2.8-1.1-4.1-0.3l-3.8,2.3c0,0,0,0-0.1,0.1c-0.7,0.4-1.2,1.1-1.2,2v22.5c0,0.8,0.4,1.5,1,1.9c0,0,4,2.4,4,2.4	c0.6,0.3,1.2,0.5,1.8,0.5c0.8,0,1.6-0.3,2.3-0.8l9.9-8l16.3,17.8c0.5,0.6,1.2,0.9,2,0.9c0.3,0,0.6-0.1,1-0.2c0,0,10.7-5.2,10.7-5.2	c1.8-0.7,3-2.5,3-4.4V15.9C58,13.9,56.8,12.1,55,11.4z M12,18.2c0.6-0.3,1.3-0.3,1.8,0.2l9.9,8L19.5,31L10,19.4L12,18.2z M18.1,32.5	L15,36v-7.3L18.1,32.5z M8.2,43.5c-0.1,0-0.2-0.1-0.2-0.2V20.7c0-0.2,0.1-0.2,0.2-0.2c0,0,0,0,0.1,0c0.1,0,0.1,0,0.2,0.1l4.6,5.6	c0,0,0,11.9,0,11.9l-4.7,5.2C8.3,43.5,8.3,43.5,8.2,43.5z M13.8,45.7c-0.5,0.4-1.2,0.5-1.8,0.1L10,44.6L42.9,8.3	c0.3-0.3,0.6-0.2,0.7-0.2c0.1,0,0.4,0.2,0.4,0.6v12.8L13.8,45.7z M44,40l-9.9-8l9.9-8V40z M26.6,38l5.9-4.7L44,42.6v12.8	c0,0.4-0.3,0.5-0.4,0.6c-0.1,0-0.4,0.1-0.7-0.2L26.6,38z M56,48.1c0,1.2-0.7,2.2-1.7,2.6c0,0-8.3,4-8.3,4V9.3c0,0,8.2,4,8.3,4	c1,0.4,1.7,1.4,1.7,2.6V48.1z"/></svg>